#!OML:ASF F:\VICON\USERDATA\INSTALL\rory3\rory3.ASF
:FULLY-SPECIFIED
:DEGREES
2143
root 2.94641 17.844 2.92082 365.474 -13.4516 361.392
lowerback 9.4541 -1.44253 0.00204236
upperback 0.236314 -1.71768 4.09966
thorax -4.93484 -0.806605 4.52535
lowerneck -17.3001 -10.8642 -13.9535
upperneck 20.6337 -14.7182 13.0692
head 11.6729 -6.39857 4.65796
rclavicle 3.1408e-014 -7.95139e-015
rhumerus -22.0372 -4.76511 -72.9174
rradius 35.9486
rwrist 22.6387
rhand -24.212 3.19836
rfingers 7.12502
rthumb 2.27264 -386.769
lclavicle 3.1408e-014 -7.95139e-015
lhumerus -29.413 5.79065 86.5281
lradius 26.4416
lwrist -16.2207
lhand -12.1101 22.1258
lfingers 7.12502
lthumb 13.9509 51.6377
rfemur -14.933 8.76497 19.7746
rtibia 31.9929
rfoot -4.58605 20.8464
rtoes 27.5495
lfemur -25.481 -6.33089 -15.6694
ltibia 35.6118
lfoot -9.54036 -13.1347
ltoes -17.9263
2144
root 2.95406 17.8405 2.95981 365.569 -14.1808 361.25
lowerback 9.02705 -1.46976 0.53792
upperback 0.517993 -1.73209 3.81155
thorax -4.42365 -0.837221 3.89282
lowerneck -18.1133 -10.9439 -13.064
upperneck 21.2668 -14.9047 12.4634
head 11.9638 -6.43134 4.23158
rclavicle -2.32578e-014 3.02153e-014
rhumerus -21.8262 -5.35621 -73.2165
rradius 35.9081
rwrist 22.807
rhand -24.4115 3.76277
rfingers 7.12502
rthumb 2.07995 -386.207
lclavicle -2.32578e-014 3.02153e-014
lhumerus -28.89 5.59433 86.1274
lradius 26.2281
lwrist -16.2858
lhand -11.6506 22.3536
lfingers 7.12502
lthumb 14.3937 51.8346
rfemur -15.0082 8.96919 19.8145
rtibia 32.0464
rfoot -4.23931 21.2441
rtoes 27.5855
lfemur -25.6407 -6.72915 -15.7781
ltibia 34.7608
lfoot -9.17596 -13.7943
ltoes -15.5746
2145
root 2.96081 17.8398 3.00291 365.638 -14.8945 361.168
lowerback 9.01218 -1.44905 0.582088
upperback 0.516996 -1.69957 3.84579
thorax -4.41868 -0.822034 3.89929
lowerneck -18.1681 -10.9428 -12.9912
upperneck 21.4647 -14.9293 12.3979
head 12.0412 -6.43843 4.19137
rclavicle 1.86858e-014 -1.27222e-014
rhumerus -21.9427 -5.41294 -73.0367
rradius 35.9364
rwrist 22.6625
rhand -24.4627 3.92951
rfingers 7.12502
rthumb 2.03045 -386.041
lclavicle 1.86858e-014 -1.27222e-014
lhumerus -28.7916 5.511 86.2425
lradius 25.9471
lwrist -15.8676
lhand -12.0964 22.3171
lfingers 7.12502
lthumb 13.9641 51.8282
rfemur -15.0492 9.13546 19.7819
rtibia 32.1368
rfoot -3.9056 21.7009
rtoes 27.6496
lfemur -25.672 -7.01358 -16.0192
ltibia 33.9654
lfoot -9.07158 -14.3043
ltoes -16.5495
2146
root 2.96658 17.826 3.04818 365.753 -15.6238 361.06
lowerback 8.93816 -1.40505 0.645339
upperback 0.434171 -1.63217 3.8961
thorax -4.46832 -0.788634 3.90772
lowerneck -17.0008 -10.8767 -13.5815
upperneck 20.6471 -14.9699 13.348
head 11.6554 -6.46908 4.66543
rclavicle -3.65764e-014 3.18055e-015
rhumerus -22.1606 -5.49626 -72.7858
rradius 35.8628
rwrist 22.5379
rhand -24.6097 3.89127
rfingers 7.12502
rthumb 1.88855 -386.08
lclavicle -3.65764e-014 3.18055e-015
lhumerus -28.9576 5.57105 86.3407
lradius 25.8401
lwrist -15.4627
lhand -12.6728 22.2613
lfingers 7.12502
lthumb 13.4086 51.8098
rfemur -15.1454 9.28015 19.7703
rtibia 32.2571
rfoot -3.48795 22.1447
rtoes 28.1905
lfemur -25.6803 -6.90507 -16.3424
ltibia 33.238
lfoot -9.34045 -14.8593
ltoes -20.7044
2147
root 2.97158 17.8106 3.09162 365.869 -16.3476 360.933
lowerback 8.91098 -1.36585 0.644758
upperback 0.302245 -1.57177 4.00645
thorax -4.5918 -0.755774 4.01975
lowerneck -15.9806 -10.8294 -14.0848
upperneck 20.1794 -15.0095 13.9816
head 11.3953 -6.51704 5.00577
rclavicle 9.34288e-015 1.59028e-015
rhumerus -22.4629 -5.35661 -72.4775
rradius 35.8457
rwrist 22.4417
rhand -24.8717 3.31859
rfingers 7.12502
rthumb 1.63545 -386.655
lclavicle 9.34288e-015 1.59028e-015
lhumerus -29.2464 6.04489 86.3342
lradius 25.8988
lwrist -15.8052
lhand -12.3457 22.653
lfingers 7.12502
lthumb 13.7239 52.1804
rfemur -15.2681 9.50097 19.7891
rtibia 32.4126
rfoot -3.15613 22.5348
rtoes 28.7519
lfemur -25.7418 -6.77978 -16.6147
ltibia 32.5339
lfoot -9.3805 -15.3951
ltoes -22.8914
2148
root 2.97653 17.8051 3.14143 365.887 -17.0468 360.896
lowerback 8.8887 -1.34949 0.595204
upperback 0.245012 -1.55222 4.04998
thorax -4.63797 -0.743943 4.09222
lowerneck -15.7682 -10.8324 -14.0716
upperneck 20.4163 -15.0866 13.9862
head 11.4545 -6.55767 5.00348
rclavicle -1.98785e-015 2.06736e-014
rhumerus -22.7105 -5.26044 -72.2847
rradius 35.8896
rwrist 22.4693
rhand -24.9014 2.92084
rfingers 7.12502
rthumb 1.60679 -387.053
lclavicle -1.98785e-015 2.06736e-014
lhumerus -29.4354 6.52734 86.2492
lradius 25.9476
lwrist -16.3237
lhand -11.7545 22.9009
lfingers 7.12502
lthumb 14.2936 52.3889
rfemur -15.2804 9.70292 19.7255
rtibia 32.606
rfoot -2.94235 22.9523
rtoes 29.2861
lfemur -25.6989 -6.86603 -16.9374
ltibia 31.8431
lfoot -9.2306 -15.794
ltoes -22.3423
2149
root 2.98301 17.8005 3.19337 365.904 -17.7874 360.846
lowerback 8.85463 -1.31821 0.549326
upperback 0.216991 -1.51475 4.07439
thorax -4.64878 -0.72408 4.1389
lowerneck -15.7261 -10.864 -13.7425
upperneck 20.7856 -15.2027 13.6918
head 11.5452 -6.61161 4.82668
rclavicle 7.35503e-015 3.65764e-014
rhumerus -22.9277 -5.38494 -72.0887
rradius 35.8338
rwrist 22.6226
rhand -24.8 3.25381
rfingers 7.12502
rthumb 1.70468 -386.719
lclavicle 7.35503e-015 3.65764e-014
lhumerus -29.5385 6.6672 86.2486
lradius 25.9356
lwrist -16.3028
lhand -11.6227 23.0636
lfingers 7.12502
lthumb 14.4206 52.5426
rfemur -15.2806 9.8168 19.6664
rtibia 32.7988
rfoot -2.76646 23.4122
rtoes 29.4156
lfemur -25.5895 -7.0259 -17.2072
ltibia 31.1584
lfoot -9.0962 -16.0613
ltoes -21.3396
2150
root 2.99063 17.7909 3.23751 365.95 -18.65 360.759
lowerback 8.8449 -1.22475 0.489368
upperback 0.212895 -1.39504 4.12456
thorax -4.65298 -0.663247 4.21075
lowerneck -15.7032 -10.931 -13.4448
upperneck 21.2092 -15.3309 13.2748
head 11.6522 -6.68364 4.60643
rclavicle -4.8901e-014 3.02153e-014
rhumerus -23.1369 -5.44504 -71.8654
rradius 35.8468
rwrist 22.557
rhand -24.7603 3.26123
rfingers 7.12502
rthumb 1.74311 -386.711
lclavicle -4.8901e-014 3.02153e-014
lhumerus -29.5359 6.91128 86.2087
lradius 25.983
lwrist -16.981
lhand -10.8201 23.412
lfingers 7.12502
lthumb 15.1938 52.8341
rfemur -15.3275 10.0884 19.6372
rtibia 32.9489
rfoot -2.47517 23.7478
rtoes 29.7761
lfemur -25.4914 -7.18123 -17.373
ltibia 30.5337
lfoot -8.94817 -15.9979
ltoes -20.5751
2151
root 2.99516 17.781 3.281 365.993 -19.5307 360.685
lowerback 8.81023 -1.14426 0.369871
upperback 0.198499 -1.29865 4.18191
thorax -4.65127 -0.612553 4.32642
lowerneck -15.501 -10.9615 -13.3894
upperneck 21.5611 -15.4269 13.1151
head 11.7398 -6.74353 4.53343
rclavicle 3.33958e-014 -3.02153e-014
rhumerus -23.3313 -5.31832 -71.6968
rradius 35.8785
rwrist 22.3893
rhand -24.6048 3.2312
rfingers 7.12502
rthumb 1.89327 -386.74
lclavicle 3.33958e-014 -3.02153e-014
lhumerus -29.6575 7.36809 86.1275
lradius 26.1588
lwrist -17.7316
lhand -10.2645 23.6791
lfingers 7.12502
lthumb 15.7289 53.0599
rfemur -15.3377 10.3781 19.5942
rtibia 33.0056
rfoot -2.14291 24.0321
rtoes 29.8905
lfemur -25.3993 -7.20866 -17.5553
ltibia 30.0453
lfoot -8.63252 -15.7891
ltoes -18.8905
2152
root 3.00137 17.7749 3.32865 366.105 -20.4016 360.515
lowerback 8.68202 -1.10503 0.389351
upperback 0.150108 -1.24437 4.24397
thorax -4.6329 -0.585682 4.37128
lowerneck -14.941 -10.9403 -13.5211
upperneck 21.7201 -15.5126 13.2877
head 11.7331 -6.80032 4.62896
rclavicle 4.35338e-014 7.95139e-015
rhumerus -23.5336 -5.1489 -71.5536
rradius 35.8142
rwrist 22.3396
rhand -24.3925 3.54402
rfingers 7.12502
rthumb 2.09826 -386.425
lclavicle 4.35338e-014 7.95139e-015
lhumerus -29.9116 7.64977 86.127
lradius 26.3659
lwrist -17.3541
lhand -10.9391 23.5638
lfingers 7.12502
lthumb 15.0792 52.9946
rfemur -15.346 10.5273 19.626
rtibia 32.9768
rfoot -1.70511 24.4543
rtoes 29.9812
lfemur -25.3371 -7.08993 -17.6715
ltibia 29.7012
lfoot -8.22167 -15.4774
ltoes -16.2148
2153
root 3.00851 17.78 3.38081 366.219 -21.2814 360.272
lowerback 8.56092 -1.06627 0.554834
upperback 0.0935923 -1.17769 4.26178
thorax -4.63174 -0.556062 4.28546
lowerneck -14.3674 -10.928 -13.5334
upperneck 21.9581 -15.6574 13.4548
head 11.7518 -6.87496 4.69483
rclavicle -2.74323e-014 -5.725e-014
rhumerus -23.8812 -5.00635 -71.4684
rradius 35.8596
rwrist 22.3245
rhand -24.1955 3.597
rfingers 7.12502
rthumb 2.2886 -386.37
lclavicle -2.74323e-014 -5.725e-014
lhumerus -30.1725 7.41813 86.2062
lradius 26.5015
lwrist -16.2716
lhand -12.2785 23.3423
lfingers 7.12502
lthumb 13.7887 52.8654
rfemur -15.2997 10.6915 19.7269
rtibia 32.9424
rfoot -1.12615 25.0085
rtoes 30.496
lfemur -25.2559 -7.07881 -17.6741
ltibia 29.4654
lfoot -7.86702 -14.7569
ltoes -12.5336
2154
root 3.01325 17.7815 3.43203 366.327 -22.121 360.072
lowerback 8.44933 -1.02394 0.608031
upperback 0.0467945 -1.11692 4.29714
thorax -4.62254 -0.526869 4.28292
lowerneck -13.9336 -10.9546 -13.3518
upperneck 22.2811 -15.8207 13.3396
head 11.7862 -6.9628 4.61615
rclavicle 6.02318e-014 -7.95139e-015
rhumerus -24.156 -4.88685 -71.3792
rradius 35.9073
rwrist 22.4339
rhand -23.8843 3.54771
rfingers 7.12502
rthumb 2.58909 -386.416
lclavicle 6.02318e-014 -7.95139e-015
lhumerus -30.4028 6.9995 86.3703
lradius 26.6942
lwrist -15.3339
lhand -13.1459 23.3419
lfingers 7.12502
lthumb 12.9526 52.9199
rfemur -15.245 10.8965 19.7986
rtibia 32.9133
rfoot -0.453368 25.5535
rtoes 31.3396
lfemur -25.2434 -7.28195 -17.6018
ltibia 29.4257
lfoot -7.6676 -13.6834
ltoes -7.36879
2155
root 3.01826 17.7675 3.48011 366.405 -22.9044 360.011
lowerback 8.33417 -1.02138 0.422279
upperback -0.00298468 -1.13046 4.37804
thorax -4.60384 -0.528698 4.47338
lowerneck -13.5241 -10.9505 -13.2293
upperneck 22.6308 -15.8904 13.1097
head 11.8139 -7.0235 4.5217
rclavicle -2.16675e-014 -3.02153e-014
rhumerus -24.2842 -4.64358 -71.2373
rradius 35.8665
rwrist 22.5404
rhand -23.5866 3.7293
rfingers 7.12502
rthumb 2.87656 -386.231
lclavicle -2.16675e-014 -3.02153e-014
lhumerus -30.6246 7.1092 86.3891
lradius 26.9949
lwrist -15.4656
lhand -12.5573 23.6173
lfingers 7.12502
lthumb 13.5199 53.1584
rfemur -15.2453 11.0015 19.7305
rtibia 32.9304
rfoot -0.0125494 26.0791
rtoes 31.9064
lfemur -25.1517 -7.33042 -17.7191
ltibia 29.5508
lfoot -8.52027 -12.3945
ltoes -7.54281
